<svg width="218" height="28" viewBox="0 0 218 28" fill="none" xmlns="http://www.w3.org/2000/svg">
<g clip-path="url(#clip0)">
<path d="M36.4931 24.2664C36.7982 24.2664 37.0501 24.2437 37.2489 24.1984C37.4476 24.153 37.6025 24.1089 37.7134 24.0659L37.3806 22.5478C37.3113 22.5622 37.2188 22.5801 37.1032 22.6015C36.9877 22.623 36.8398 22.6338 36.6595 22.6338C36.4191 22.6338 36.1915 22.5944 35.9765 22.5156C35.7616 22.4369 35.5859 22.2793 35.4495 22.043C35.3132 21.8067 35.245 21.4499 35.245 20.9725L35.2445 14.5571L37.5193 14.5566V13.1245L35.2445 13.1248L35.245 10.4894H33.6086L33.6086 13.1248L32 13.1245V14.5566L33.6086 14.5571L33.6086 21.4308C33.6086 22.0123 33.728 22.5031 33.9668 22.9031L34.042 23.0204C34.3309 23.4405 34.6961 23.7532 35.1375 23.9585C35.579 24.1637 36.0308 24.2664 36.4931 24.2664ZM42.8167 24.381C43.4361 24.381 43.9607 24.2855 44.3906 24.0945C44.8205 23.9036 45.1649 23.6721 45.4238 23.4C45.6826 23.1278 45.8675 22.8725 45.9785 22.6338H46.0617V24.1232H47.698V16.8767C47.698 16.0031 47.5594 15.3061 47.282 14.7858C47.0047 14.2654 46.6568 13.8764 46.2385 13.6186C45.8201 13.3608 45.3879 13.1901 44.9419 13.1066C44.4958 13.0231 44.1017 12.9813 43.7597 12.9813C43.2234 12.9813 42.6791 13.0565 42.1268 13.2068C41.5744 13.3572 41.0659 13.6198 40.6013 13.9945C40.1368 14.3693 39.7658 14.8908 39.4885 15.5591L41.0416 16.1319C41.2219 15.731 41.5339 15.3538 41.9777 15.0006C42.4214 14.6473 43.0339 14.4707 43.8151 14.4707C44.5686 14.4707 45.1314 14.6664 45.5035 15.0579C45.8756 15.4493 46.0617 15.9983 46.0617 16.7048V16.7621C46.0617 17.0342 45.9681 17.2251 45.7808 17.3349C45.5936 17.4447 45.2978 17.5223 44.8933 17.5676C44.4889 17.613 43.963 17.6786 43.3159 17.7646C42.8213 17.8314 42.3301 17.9209 41.8425 18.0331C41.3548 18.1453 40.9099 18.3135 40.5077 18.5379C40.1056 18.7623 39.7843 19.0714 39.5439 19.4652C39.3036 19.859 39.1834 20.371 39.1834 21.0012C39.1834 21.7172 39.3452 22.3271 39.6687 22.8307C39.9923 23.3343 40.4291 23.7186 40.9792 23.9835C41.5293 24.2485 42.1418 24.381 42.8167 24.381ZM43.0663 22.8629C42.4145 22.8629 41.8771 22.7137 41.4542 22.4154C41.0312 22.117 40.8197 21.6742 40.8197 21.0871C40.8197 20.6574 40.9318 20.3173 41.156 20.0667C41.3802 19.8161 41.6761 19.6275 42.0436 19.501C42.411 19.3745 42.8074 19.2826 43.2327 19.2253C43.4083 19.2015 43.6383 19.1716 43.9226 19.1358C44.2069 19.1 44.5004 19.0571 44.8032 19.0069C45.106 18.9568 45.3741 18.8971 45.6075 18.8279C45.8409 18.7587 45.9923 18.6811 46.0617 18.5952V20.1419C46.0617 20.6002 45.9473 21.037 45.7184 21.4523C45.4896 21.8676 45.1522 22.2065 44.7061 22.4691C44.26 22.7316 43.7134 22.8629 43.0663 22.8629ZM51.2204 11.2914C51.5393 11.2914 51.8132 11.1792 52.042 10.9548C52.2708 10.7305 52.3853 10.4608 52.3853 10.1457C52.3853 9.83063 52.2708 9.56091 52.042 9.33655C51.8132 9.11218 51.5393 9 51.2204 9C50.9014 9 50.6275 9.11218 50.3987 9.33655C50.1699 9.56091 50.0555 9.83063 50.0555 10.1457C50.0555 10.4608 50.1699 10.7305 50.3987 10.9548C50.6275 11.1792 50.9014 11.2914 51.2204 11.2914ZM52.0247 24.1232V13.1245H50.3883V24.1232H52.0247ZM56.3514 24.1232V9.45828H54.715V24.1232H56.3514ZM63.0632 24.1232L65.393 15.6737H65.5594L67.8891 24.1232H69.4978L72.7428 13.1245H71.0232L68.7212 21.5167H68.6102L66.3637 13.1245H64.6164L62.3421 21.5454H62.2312L59.9292 13.1245H58.2096L61.4546 24.1232H63.0632ZM75.4331 11.2914C75.752 11.2914 76.0259 11.1792 76.2547 10.9548C76.4835 10.7305 76.5979 10.4608 76.5979 10.1457C76.5979 9.83063 76.4835 9.56091 76.2547 9.33655C76.0259 9.11218 75.752 9 75.4331 9C75.1141 9 74.8402 9.11218 74.6114 9.33655C74.3826 9.56091 74.2682 9.83063 74.2682 10.1457C74.2682 10.4608 74.3826 10.7305 74.6114 10.9548C74.8402 11.1792 75.1141 11.2914 75.4331 11.2914ZM76.2374 24.1232V13.1245H74.601V24.1232H76.2374ZM80.5641 24.1232V17.5068C80.5641 16.8671 80.6819 16.3229 80.9177 15.8742C81.1534 15.4254 81.4758 15.0841 81.8849 14.8502C82.294 14.6163 82.7597 14.4993 83.2821 14.4993C84.0402 14.4993 84.6365 14.7416 85.071 15.2261C85.5055 15.7107 85.7228 16.385 85.7228 17.249V24.1232H87.3591V17.1344C87.3591 16.1988 87.2089 15.4242 86.9084 14.8108C86.608 14.1974 86.1873 13.7391 85.6465 13.436C85.1057 13.1329 84.4747 12.9813 83.7536 12.9813C82.9493 12.9813 82.2929 13.152 81.7844 13.4933C81.2759 13.8346 80.8969 14.2845 80.6473 14.843H80.5086V13.1245H78.9277V24.1232H80.5641ZM94.071 24.3523C94.7551 24.3523 95.3029 24.2342 95.7143 23.9979C96.1257 23.7616 96.4424 23.4918 96.6642 23.1887C96.8861 22.8856 97.0572 22.6338 97.1773 22.4333H97.3715V24.1232H98.9524V9.45828H97.316V14.8717H97.1773C97.0572 14.6807 96.8896 14.4361 96.6746 14.1377C96.4597 13.8394 96.15 13.572 95.7455 13.3357C95.341 13.0994 94.7921 12.9813 94.0988 12.9813C93.202 12.9813 92.4115 13.2128 91.7274 13.6759C91.0433 14.1389 90.5094 14.7953 90.1257 15.645C89.742 16.4948 89.5502 17.4972 89.5502 18.6525C89.5502 19.8173 89.742 20.8257 90.1257 21.6778C90.5094 22.5299 91.041 23.1887 91.7205 23.6542C92.4 24.1196 93.1835 24.3523 94.071 24.3523ZM94.2929 22.8343C93.6088 22.8343 93.0367 22.6469 92.5768 22.2722C92.1169 21.8974 91.7702 21.3914 91.5367 20.7541C91.3033 20.1168 91.1866 19.4067 91.1866 18.6238C91.1866 17.8505 91.301 17.1523 91.5298 16.5294C91.7586 15.9064 92.103 15.4123 92.5629 15.0471C93.0229 14.6819 93.5995 14.4993 94.2929 14.4993C94.9585 14.4993 95.5179 14.6724 95.9709 15.0185C96.4239 15.3646 96.7659 15.8467 96.9971 16.4649C97.2282 17.0831 97.3438 17.8028 97.3438 18.6238C97.3438 19.4545 97.2259 20.186 96.9901 20.8186C96.7544 21.4511 96.41 21.9452 95.957 22.3008C95.504 22.6564 94.9493 22.8343 94.2929 22.8343Z" fill="white"/>
<path d="M106.911 24.2153C107.859 24.2153 108.68 24.042 109.373 23.6954C110.067 23.3489 110.611 22.8671 111.007 22.2502C111.402 21.6333 111.623 20.9182 111.669 20.1049H108.881C108.825 20.4792 108.708 20.7992 108.53 21.0649C108.352 21.3306 108.128 21.5328 107.858 21.6714C107.587 21.81 107.283 21.8794 106.945 21.8794C106.488 21.8794 106.088 21.7546 105.745 21.5051C105.403 21.2555 105.138 20.8928 104.951 20.4168C104.764 19.9408 104.67 19.3632 104.67 18.6839C104.67 18.0138 104.765 17.4431 104.955 16.9718C105.144 16.5004 105.409 16.1411 105.749 15.8939C106.089 15.6467 106.488 15.523 106.945 15.523C107.487 15.523 107.925 15.6859 108.26 16.0117C108.595 16.3375 108.802 16.7661 108.881 17.2975H111.669C111.628 16.475 111.403 15.7587 110.996 15.1487C110.589 14.5387 110.037 14.0651 109.339 13.7277C108.64 13.3904 107.826 13.2217 106.897 13.2217C105.819 13.2217 104.89 13.4539 104.108 13.9184C103.327 14.3828 102.725 15.0274 102.301 15.8523C101.878 16.6772 101.667 17.6349 101.667 18.7255C101.667 19.8022 101.876 20.7541 102.295 21.5813C102.713 22.4085 103.314 23.0543 104.098 23.5187C104.882 23.9831 105.819 24.2153 106.911 24.2153ZM118.076 24.2153C119.153 24.2153 120.084 23.9854 120.868 23.5256C121.652 23.0658 122.256 22.4235 122.682 21.5986C123.107 20.7738 123.32 19.816 123.32 18.7255C123.32 17.6256 123.107 16.6633 122.682 15.8384C122.256 15.0136 121.652 14.3712 120.868 13.9114C120.084 13.4516 119.153 13.2217 118.076 13.2217C116.998 13.2217 116.068 13.4516 115.284 13.9114C114.5 14.3712 113.895 15.0136 113.47 15.8384C113.045 16.6633 112.832 17.6256 112.832 18.7255C112.832 19.816 113.045 20.7738 113.47 21.5986C113.895 22.4235 114.5 23.0658 115.284 23.5256C116.068 23.9854 116.998 24.2153 118.076 24.2153ZM118.09 21.9279C117.595 21.9279 117.18 21.7881 116.845 21.5085C116.509 21.2289 116.257 20.8465 116.088 20.3613C115.92 19.8761 115.835 19.3239 115.835 18.7047C115.835 18.0854 115.92 17.5332 116.088 17.048C116.257 16.5628 116.509 16.1792 116.845 15.8974C117.18 15.6155 117.595 15.4745 118.09 15.4745C118.58 15.4745 118.989 15.6155 119.317 15.8974C119.646 16.1792 119.894 16.5628 120.063 17.048C120.232 17.5332 120.316 18.0854 120.316 18.7047C120.316 19.3239 120.232 19.8761 120.063 20.3613C119.894 20.8465 119.646 21.2289 119.317 21.5085C118.989 21.7881 118.58 21.9279 118.09 21.9279ZM127.898 24.0074V17.6164C127.898 17.2236 127.974 16.8805 128.127 16.587C128.279 16.2936 128.486 16.0649 128.748 15.9008C129.009 15.7368 129.304 15.6547 129.632 15.6547C130.118 15.6547 130.51 15.8096 130.808 16.1192C131.106 16.4288 131.255 16.8447 131.255 17.3669V24.0074H134.12V17.5055C134.12 16.951 134.27 16.5039 134.571 16.1642C134.871 15.8246 135.29 15.6547 135.826 15.6547C136.298 15.6547 136.691 15.8026 137.006 16.0984C137.32 16.3941 137.477 16.8377 137.477 17.4292V24.0074H140.425V16.847C140.425 15.6917 140.114 14.7987 139.492 14.1679C138.87 13.5371 138.062 13.2217 137.068 13.2217C136.287 13.2217 135.61 13.4054 135.039 13.7728C134.468 14.1402 134.074 14.6289 133.856 15.2388H133.745C133.574 14.6196 133.232 14.1286 132.719 13.7659C132.206 13.4031 131.584 13.2217 130.853 13.2217C130.132 13.2217 129.512 13.402 128.994 13.7624C128.476 14.1229 128.106 14.615 127.884 15.2388H127.759V13.3604H124.943V24.0074H127.898ZM145.406 28V22.3022H145.496C145.63 22.5979 145.824 22.8902 146.079 23.179C146.333 23.4679 146.66 23.707 147.06 23.8965C147.46 24.0859 147.947 24.1807 148.52 24.1807C149.33 24.1807 150.061 23.9716 150.716 23.5534C151.37 23.1351 151.888 22.5182 152.269 21.7026C152.651 20.887 152.842 19.8854 152.842 18.6977C152.842 17.4778 152.645 16.4623 152.252 15.6513C151.859 14.8403 151.334 14.2326 150.678 13.8283C150.021 13.4239 149.304 13.2217 148.527 13.2217C147.931 13.2217 147.432 13.3222 147.032 13.5233C146.632 13.7243 146.309 13.9738 146.061 14.2719C145.814 14.5699 145.625 14.8622 145.496 15.1487H145.364V13.3604H142.451V28H145.406ZM147.584 21.8308C147.107 21.8308 146.703 21.7003 146.37 21.4392C146.037 21.1781 145.783 20.8119 145.607 20.3405C145.431 19.8692 145.343 19.317 145.343 18.6839C145.343 18.0508 145.431 17.5009 145.607 17.0341C145.783 16.5674 146.036 16.207 146.366 15.9528C146.697 15.6986 147.103 15.5716 147.584 15.5716C148.069 15.5716 148.479 15.7033 148.812 15.9667C149.145 16.2301 149.397 16.5951 149.568 17.0619C149.739 17.5286 149.824 18.0693 149.824 18.6839C149.824 19.3031 149.738 19.8495 149.564 20.3232C149.391 20.7969 149.138 21.1666 148.805 21.4323C148.472 21.698 148.065 21.8308 147.584 21.8308ZM159.312 24.2153C160.39 24.2153 161.32 23.9854 162.104 23.5256C162.888 23.0658 163.493 22.4235 163.918 21.5986C164.343 20.7738 164.556 19.816 164.556 18.7255C164.556 17.6256 164.343 16.6633 163.918 15.8384C163.493 15.0136 162.888 14.3712 162.104 13.9114C161.32 13.4516 160.39 13.2217 159.312 13.2217C158.235 13.2217 157.304 13.4516 156.52 13.9114C155.736 14.3712 155.132 15.0136 154.706 15.8384C154.281 16.6633 154.068 17.6256 154.068 18.7255C154.068 19.816 154.281 20.7738 154.706 21.5986C155.132 22.4235 155.736 23.0658 156.52 23.5256C157.304 23.9854 158.235 24.2153 159.312 24.2153ZM159.326 21.9279C158.831 21.9279 158.416 21.7881 158.081 21.5085C157.746 21.2289 157.494 20.8465 157.325 20.3613C157.156 19.8761 157.072 19.3239 157.072 18.7047C157.072 18.0854 157.156 17.5332 157.325 17.048C157.494 16.5628 157.746 16.1792 158.081 15.8974C158.416 15.6155 158.831 15.4745 159.326 15.4745C159.816 15.4745 160.225 15.6155 160.554 15.8974C160.882 16.1792 161.131 16.5628 161.299 17.048C161.468 17.5332 161.553 18.0854 161.553 18.7047C161.553 19.3239 161.468 19.8761 161.299 20.3613C161.131 20.8465 160.882 21.2289 160.554 21.5085C160.225 21.7881 159.816 21.9279 159.326 21.9279ZM169.134 24.0074V17.8521C169.139 17.3946 169.226 17.0029 169.394 16.6772C169.563 16.3514 169.799 16.103 170.102 15.932C170.405 15.761 170.755 15.6755 171.153 15.6755C171.745 15.6755 172.209 15.8592 172.547 16.2266C172.885 16.594 173.051 17.1035 173.046 17.755V24.0074H176.001V17.2282C176.001 16.4011 175.849 15.6882 175.544 15.0898C175.238 14.4914 174.811 14.0304 174.26 13.707C173.71 13.3835 173.065 13.2217 172.325 13.2217C171.534 13.2217 170.861 13.4031 170.306 13.7659C169.752 14.1286 169.356 14.6196 169.12 15.2388H168.995V13.3604H166.179V24.0074H169.134ZM182.877 24.2153C183.756 24.2153 184.531 24.0802 185.204 23.8098C185.877 23.5395 186.427 23.1606 186.855 22.673C187.283 22.1855 187.566 21.6136 187.705 20.9575L184.972 20.7772C184.87 21.0453 184.722 21.2717 184.528 21.4565C184.334 21.6414 184.1 21.78 183.827 21.8724C183.554 21.9648 183.254 22.0111 182.925 22.0111C182.431 22.0111 182.003 21.9071 181.642 21.6991C181.281 21.4912 181.003 21.1954 180.806 20.8119C180.61 20.4283 180.512 19.9732 180.512 19.4464L180.511 19.4398L187.767 19.4394V18.6284C187.767 17.7227 187.64 16.9313 187.386 16.2543C187.131 15.5773 186.776 15.0147 186.321 14.5665C185.865 14.1182 185.334 13.782 184.725 13.5579C184.117 13.3338 183.462 13.2217 182.759 13.2217C181.714 13.2217 180.804 13.4528 180.029 13.9149C179.255 14.377 178.655 15.0217 178.229 15.8488C177.804 16.676 177.591 17.6372 177.591 18.7324C177.591 19.8553 177.804 20.8269 178.229 21.6471C178.655 22.4674 179.262 23.1005 180.05 23.5464C180.839 23.9924 181.781 24.2153 182.877 24.2153ZM180.518 17.5506C180.542 17.191 180.64 16.8606 180.81 16.5593C181.004 16.2151 181.273 15.9401 181.618 15.7345C181.962 15.5288 182.359 15.426 182.808 15.426C183.238 15.426 183.616 15.5196 183.942 15.7067C184.268 15.8939 184.523 16.1515 184.708 16.4796C184.893 16.8077 184.986 17.1843 184.986 17.6095L180.515 17.6099L180.518 17.5506ZM192.347 24.0074V17.8521C192.351 17.3946 192.438 17.0029 192.607 16.6772C192.776 16.3514 193.011 16.103 193.314 15.932C193.617 15.761 193.967 15.6755 194.365 15.6755C194.957 15.6755 195.422 15.8592 195.759 16.2266C196.097 16.594 196.263 17.1035 196.259 17.755V24.0074H199.214V17.2282C199.214 16.4011 199.061 15.6882 198.756 15.0898C198.451 14.4914 198.023 14.0304 197.473 13.707C196.922 13.3835 196.277 13.2217 195.537 13.2217C194.747 13.2217 194.074 13.4031 193.519 13.7659C192.964 14.1286 192.569 14.6196 192.333 15.2388H192.208V13.3604H189.392V24.0074H192.347ZM205.493 24.1529C205.877 24.1391 206.203 24.101 206.471 24.0386C206.739 23.9762 206.947 23.9219 207.095 23.8757L206.63 21.6783C206.556 21.6922 206.45 21.7118 206.311 21.7373C206.173 21.7627 206.034 21.7754 205.895 21.7754C205.696 21.7754 205.522 21.7453 205.371 21.6853C205.221 21.6252 205.104 21.5201 205.021 21.3699C204.938 21.2197 204.896 21.0083 204.896 20.7356L204.896 15.5786L206.901 15.5785V13.3604L204.896 13.3607L204.896 10.8095H201.941L201.941 13.3607L200.485 13.3604V15.5785L201.941 15.5786L201.941 21.1238C201.937 21.7582 202.057 22.2932 202.301 22.729L202.378 22.8567C202.674 23.3142 203.089 23.6515 203.623 23.8687C204.157 24.0859 204.781 24.1807 205.493 24.1529ZM212.732 24.2153C213.657 24.2153 214.474 24.0686 215.184 23.7752C215.894 23.4817 216.453 23.0716 216.862 22.5448C217.272 22.018 217.476 21.4057 217.476 20.7079C217.476 19.9408 217.222 19.3216 216.713 18.8502C216.205 18.3789 215.432 18.0369 214.396 17.8243L212.468 17.4362C211.973 17.3299 211.624 17.1889 211.421 17.0133C211.217 16.8377 211.115 16.6229 211.115 16.3687C211.115 16.0498 211.273 15.7945 211.587 15.6028C211.902 15.411 212.288 15.3151 212.746 15.3151C213.088 15.3151 213.383 15.3717 213.63 15.4849C213.877 15.5981 214.077 15.7483 214.23 15.9355C214.383 16.1226 214.482 16.3317 214.528 16.5628L217.233 16.3964C217.104 15.4168 216.652 14.6427 215.877 14.0743C215.103 13.5059 214.043 13.2217 212.697 13.2217C211.786 13.2217 210.992 13.3557 210.314 13.6238C209.637 13.8918 209.112 14.273 208.74 14.7675C208.367 15.262 208.181 15.8511 208.181 16.5351C208.181 17.3299 208.434 17.9838 208.941 18.4967C209.447 19.0097 210.221 19.3701 211.261 19.5781L213.106 19.9454C213.569 20.0379 213.911 20.1707 214.133 20.344C214.355 20.5173 214.468 20.7379 214.473 21.006C214.468 21.3248 214.307 21.5848 213.991 21.7858C213.674 21.9868 213.257 22.0873 212.739 22.0873C212.211 22.0873 211.779 21.9752 211.441 21.7511C211.104 21.527 210.891 21.2001 210.803 20.7703L207.897 20.9228C208.04 21.9394 208.529 22.7423 209.364 23.3315C210.199 23.9207 211.321 24.2153 212.732 24.2153Z" fill="#CBD5E0"/>
<path d="M22.7076 0.627347C22.7076 0.627347 27.7477 13.6994 20.8234 22.8206C16.5901 28.3951 9.9038 27.2768 5.51834 25.7064C7.05046 22.309 8.9995 19.6261 11.3645 17.6577C12.5486 18.2774 14.5739 18.4428 17.4403 18.1539C14.8863 17.938 13.125 17.5086 12.1565 16.8654L12.2821 16.9436C14.4244 15.3921 16.8798 14.3766 19.6485 13.8971C16.4651 13.6183 13.5754 14.2255 10.9796 15.7214C10.3997 14.9799 9.81786 13.9743 9.23398 12.7047C9.30012 14.2394 9.56891 15.4404 10.0406 16.3058C7.37658 18.1101 5.03952 20.9011 3.02942 24.6789C2.96458 24.6502 2.90112 24.6204 2.8391 24.591C2.03223 24.2344 1.50325 23.556 1.07493 22.5569C-1.89599 13.4001 4.71121 8.28893 11.2402 7.99004C23.2563 7.4388 22.7076 0.627347 22.7076 0.627347Z" fill="#0ED3CF"/>
</g>
<defs>
<clipPath id="clip0">
<rect width="218" height="28" fill="white"/>
</clipPath>
</defs>
</svg>
